<svg viewBox="0 0 350 179.43268865629372" preserveAspectRatio="xMidYMid meet" class="css-8aabad" id="bchhabce"><defs id="SvgjsDefs1458"></defs><g id="SvgjsG1459" featurekey="symbolFeature-0" transform="matrix(4.768229955007334,0,0,4.768229955007334,-63.40911494502268,-190.1284038452294)" fill="#111"><g xmlns="http://www.w3.org/2000/svg"><polygon points="37.876,59.597 35.319,57.04 42.625,49.734 35.319,42.431 37.876,39.874 47.738,49.734  "></polygon></g><g xmlns="http://www.w3.org/2000/svg"><rect x="48.182" y="56.51" width="16.498" height="3.617"></rect></g></g><g id="SvgjsG1460" featurekey="fiAKjI-0" transform="matrix(2.8759244763896876,0,0,2.8759244763896876,-1.4954820442163859,99.6869374496833)" fill="#111"><path d="M7.76 8.9 c-2.32 0 -4.08 1.86 -4.08 4.22 c0 2.42 1.76 4.26 4.18 4.26 c1.68 0 2.96 -0.88 3.74 -2.22 l2.42 1.68 c-1.32 2.16 -3.34 3.44 -6.12 3.44 c-4.22 0 -7.38 -3.14 -7.38 -7.16 c0 -3.98 3.14 -7.1 7.3 -7.1 c2.7 0 4.84 1.12 6.14 3.42 l-2.46 1.7 c-0.8 -1.32 -2 -2.24 -3.74 -2.24 z M22.16 20.28 c-4 0 -7.26 -3.06 -7.26 -7.12 c0 -4.08 3.26 -7.14 7.26 -7.14 c4.1 0 7.26 3.06 7.26 7.12 c0 4.08 -3.16 7.14 -7.26 7.14 z M22.16 17.4 c2.32 0 4.1 -1.84 4.1 -4.26 c0 -2.38 -1.78 -4.24 -4.1 -4.24 s-4.1 1.86 -4.1 4.26 s1.78 4.24 4.1 4.24 z M30.78 20 l0 -13.7 l5.6 0 c4.22 0 6.98 3 6.98 6.78 c0 3.86 -2.88 6.92 -7.14 6.92 l-5.44 0 z M36.22 9.14 l-2.34 0 l0 8.02 l2.44 0 c2.22 0 3.92 -1.72 3.92 -4.04 c0 -2.28 -1.7 -3.98 -4.02 -3.98 z M44.720000000000006 20 l0 -13.7 l10.02 0 l0 2.8 l-6.92 0 l0 2.58 l6.4 0 l0 2.72 l-6.4 0 l0 2.8 l6.94 0 l0 2.8 l-10.04 0 z M67 8.9 c-2.32 0 -4.08 1.86 -4.08 4.22 c0 2.42 1.76 4.26 4.18 4.26 c1.68 0 2.96 -0.88 3.74 -2.22 l2.42 1.68 c-1.32 2.16 -3.34 3.44 -6.12 3.44 c-4.22 0 -7.38 -3.14 -7.38 -7.16 c0 -3.98 3.14 -7.1 7.3 -7.1 c2.7 0 4.84 1.12 6.14 3.42 l-2.46 1.7 c-0.8 -1.32 -2 -2.24 -3.74 -2.24 z M79.84 9.14 l-2.28 0 l0 3.66 l2.18 0 c1.34 0 2.16 -0.76 2.16 -1.82 s-0.68 -1.84 -2.06 -1.84 z M77.56 15.34 l0 4.66 l-3.1 0 l0 -13.7 l5.84 0 c2.92 0 4.72 1.88 4.72 4.56 c0 2.14 -1.42 3.92 -3.74 4.38 l4.36 4.76 l-4.04 0 z M94.46000000000001 14.9 l-1.78 -5.36 l-1.78 5.36 l3.56 0 z M96.16 20 l-0.78 -2.36 l-5.38 0 l-0.78 2.36 l-3.18 0 l4.84 -13.7 l3.8 0 l4.82 13.7 l-3.34 0 z M109.62 15.14 l-6.06 0 l0 4.86 l-3.1 0 l0 -13.7 l9.68 0 l0 2.84 l-6.58 0 l0 3.28 l6.06 0 l0 2.72 z M118.14000000000001 20 l-3.1 0 l0 -10.86 l-4.08 0 l0 -2.84 l11.26 0 l0 2.84 l-4.08 0 l0 10.86 z"></path></g><g id="SvgjsG1461" featurekey="sloganFeature-0" transform="matrix(0.715437315488156,0,0,0.715437315488156,34.18440155586469,163.85046343370985)" fill="#111"><path d="M1.14 13 c0 -4.04 3.18 -7.2 7.18 -7.2 c1.68 0 3.28 0.56 4.7 1.64 l-0.9 1.4 c-1.18 -0.9 -2.4 -1.34 -3.8 -1.34 c-3.02 0 -5.38 2.42 -5.38 5.5 s2.38 5.5 5.38 5.5 c1.52 0 2.82 -0.48 3.8 -1.42 l0.92 1.38 c-1.22 1.1 -2.94 1.74 -4.72 1.74 c-4 0 -7.18 -3.18 -7.18 -7.2 z M24.807 20.2 c-4 0 -7.18 -3.2 -7.18 -7.2 s3.18 -7.2 7.18 -7.2 s7.18 3.2 7.18 7.2 s-3.18 7.2 -7.18 7.2 z M24.807 18.48 c3.04 0 5.32 -2.38 5.32 -5.48 s-2.28 -5.48 -5.32 -5.48 c-3.06 0 -5.34 2.38 -5.34 5.48 s2.28 5.48 5.34 5.48 z M42.174 6 c4.64 0 7.2 2.84 7.2 7 s-2.56 7 -7.2 7 l-4.8 0 l0 -14 l4.8 0 z M42.274 18.28 c3.4 0 5.3 -2.12 5.3 -5.28 c0 -3.18 -1.9 -5.28 -5.3 -5.28 l-3.1 0 l0 10.56 l3.1 0 z M63.161 18.28 l0.12 1.72 l-8.52 0 l0 -14 l8.12 0 l0.14 1.72 l-6.46 0 l0 3.42 l4.38 0 l0 1.72 l-4.38 0 l0 5.42 l6.6 0 z M68.84800000000001 17.759999999999998 l1.48 0 l-1.26 4.02 l-1.24 0 z M84.54200000000002 13 c0 -4.04 3.18 -7.2 7.18 -7.2 c1.68 0 3.28 0.56 4.7 1.64 l-0.9 1.4 c-1.18 -0.9 -2.4 -1.34 -3.8 -1.34 c-3.02 0 -5.38 2.42 -5.38 5.5 s2.38 5.5 5.38 5.5 c1.52 0 2.82 -0.48 3.8 -1.42 l0.92 1.38 c-1.22 1.1 -2.94 1.74 -4.72 1.74 c-4 0 -7.18 -3.18 -7.18 -7.2 z M111.769 11.06 c0 2.26 -1.06 4.2 -3.24 4.84 l3.02 4.1 l-2.16 0 l-2.86 -3.88 l-3.14 0 l0 3.88 l-1.8 0 l0 -14 l5.28 0 c3.3 0 4.9 2.28 4.9 5.06 z M103.38900000000001 7.68 l0 6.74 l3.4 0 c2.26 0 3.18 -1.66 3.18 -3.36 s-0.92 -3.38 -3.18 -3.38 l-3.4 0 z M126.29600000000002 20 l-1.22 -2.84 l-6.24 0 l-1.22 2.84 l-1.92 0 l6.16 -14.2 l0.2 0 l6.16 14.2 l-1.92 0 z M119.55600000000001 15.48 l4.8 0 l-2.4 -5.54 z M134.56300000000002 7.720000000000001 l0 4.32 l4.28 0 l0 1.72 l-4.28 0 l0 6.24 l-1.8 0 l0 -14 l7.96 0 l0.12 1.72 l-6.28 0 z M154.71 7.720000000000001 l-4.08 0 l0 12.28 l-1.8 0 l0 -12.28 l-4.1 0 l0.12 -1.72 l9.74 0 z M159.85700000000003 17.759999999999998 l1.48 0 l-1.26 4.02 l-1.24 0 z M180.91100000000003 6 c4.64 0 7.2 2.84 7.2 7 s-2.56 7 -7.2 7 l-4.8 0 l0 -14 l4.8 0 z M181.01100000000002 18.28 c3.4 0 5.3 -2.12 5.3 -5.28 c0 -3.18 -1.9 -5.28 -5.3 -5.28 l-3.1 0 l0 10.56 l3.1 0 z M201.89800000000002 18.28 l0.12 1.72 l-8.52 0 l0 -14 l8.12 0 l0.14 1.72 l-6.46 0 l0 3.42 l4.38 0 l0 1.72 l-4.38 0 l0 5.42 l6.6 0 z M205.96500000000003 6 l1.96 0 l4.24 10.24 l4.26 -10.24 l1.96 0 l-6.1 14.2 l-0.22 0 z M231.53200000000004 18.28 l0.12 1.72 l-8.52 0 l0 -14 l8.12 0 l0.14 1.72 l-6.46 0 l0 3.42 l4.38 0 l0 1.72 l-4.38 0 l0 5.42 l6.6 0 z M238.59900000000005 18.28 l5.92 0 l-0.12 1.72 l-7.6 0 l0 -14 l1.8 0 l0 12.28 z M255.86600000000004 20.2 c-4 0 -7.18 -3.2 -7.18 -7.2 s3.18 -7.2 7.18 -7.2 s7.18 3.2 7.18 7.2 s-3.18 7.2 -7.18 7.2 z M255.86600000000004 18.48 c3.04 0 5.32 -2.38 5.32 -5.48 s-2.28 -5.48 -5.32 -5.48 c-3.06 0 -5.34 2.38 -5.34 5.48 s2.28 5.48 5.34 5.48 z M273.73300000000006 6 c3.28 0 4.82 2.48 4.82 5.1 s-1.54 5.1 -4.82 5.1 l-3.5 0 l0 3.8 l-1.8 0 l0 -14 l5.3 0 z M273.6530000000001 14.48 c1.84 0 3.06 -1.42 3.06 -3.38 s-1.22 -3.38 -3.06 -3.38 l-3.42 0 l0 6.76 l3.42 0 z M292.3200000000001 18.28 l0.12 1.72 l-8.52 0 l0 -14 l8.12 0 l0.14 1.72 l-6.46 0 l0 3.42 l4.38 0 l0 1.72 l-4.38 0 l0 5.42 l6.6 0 z M314.57400000000007 11.16 c1.76 0.64 2.78 2.24 2.78 4.28 c0 2.38 -1.18 4.48 -5 4.56 l-5.38 0 l0 -14 l5.6 0 c2.46 0 3.14 1.8 3.14 2.94 c0 1 -0.6 1.8 -1.14 2.22 z M312.35400000000004 7.619999999999999 l-3.58 0 l0 3.12 l3.2 0 c1.42 0 1.98 -0.72 1.98 -1.58 c0 -0.62 -0.4 -1.54 -1.6 -1.54 z M312.1940000000001 18.28 c2.32 0 3.32 -1.16 3.32 -2.84 c0 -1.88 -1.04 -3.2 -3.28 -3.2 l-3.46 0 l0 6.04 l3.42 0 z M330.8810000000001 18.28 l0.12 1.72 l-8.52 0 l0 -14 l8.12 0 l0.14 1.72 l-6.46 0 l0 3.42 l4.38 0 l0 1.72 l-4.38 0 l0 5.42 l6.6 0 z M345.34800000000007 20 l-1.22 -2.84 l-6.24 0 l-1.22 2.84 l-1.92 0 l6.16 -14.2 l0.2 0 l6.16 14.2 l-1.92 0 z M338.6080000000001 15.48 l4.8 0 l-2.4 -5.54 z M351.6750000000001 14.46 l0 -8.46 l1.8 0 l0 8.32 c0 2.7 1.56 4.08 3.76 4.08 s3.78 -1.38 3.78 -4.08 l0 -8.32 l1.78 0 l0 8.46 c0 3.64 -2.08 5.74 -5.56 5.74 c-3.46 0 -5.56 -2.1 -5.56 -5.74 z M377.3420000000001 7.720000000000001 l-4.08 0 l0 12.28 l-1.8 0 l0 -12.28 l-4.1 0 l0.12 -1.72 l9.74 0 z M392.50900000000007 6 l-4.94 7.78 l0 6.22 l-1.8 0 l0 -6.2 l-4.96 -7.8 l2.04 0 l3.82 6.02 l3.8 -6.02 l2.04 0 z"></path></g></svg>